{
  "accessors": [
    {
      "bufferView": 2,
      "componentType": 5126,
      "count": 2545,
      "max": [
        2.1137759685516357,
        -0.13316769897937775,
        0.4651919901371002
      ],
      "min": [
        -2.1182990074157715,
        -5.284629821777344,
        -6.664944171905518
      ],
      "type": "VEC3"
    },
    {
      "bufferView": 2,
      "byteOffset": 30540,
      "componentType": 5126,
      "count": 2545,
      "max": [
        1.0,
        1.0,
        1.0
      ],
      "min": [
        -1.0,
        -1.0,
        -1.0
      ],
      "type": "VEC3"
    },
    {
      "bufferView": 1,
      "componentType": 5126,
      "count": 2545,
      "max": [
        1.6171879768371582,
        1.733886957168579
      ],
      "min": [
        -0.6171875,
        -0.771484375
      ],
      "type": "VEC2"
    },
    {
      "bufferView": 0,
      "componentType": 5125,
      "count": 4926,
      "type": "SCALAR"
    }
  ],
  "asset": {
    "extras": {
      "author": "Kriz Faerson (https://sketchfab.com/KrizFaerson)",
      "license": "CC-BY-4.0 (http://creativecommons.org/licenses/by/4.0/)",
      "source": "https://sketchfab.com/3d-models/stairs-hello-neighbor-68f473ab321047e0841f3b5a870c8185",
      "title": "Stairs Hello neighbor"
    },
    "generator": "Sketchfab-12.68.0",
    "version": "2.0"
  },
  "bufferViews": [
    {
      "buffer": 0,
      "byteLength": 19704,
      "name": "floatBufferViews",
      "target": 34963
    },
    {
      "buffer": 0,
      "byteLength": 20360,
      "byteOffset": 19704,
      "byteStride": 8,
      "name": "floatBufferViews",
      "target": 34962
    },
    {
      "buffer": 0,
      "byteLength": 61080,
      "byteOffset": 40064,
      "byteStride": 12,
      "name": "floatBufferViews",
      "target": 34962
    }
  ],
  "buffers": [
    {
      "byteLength": 101144,
      "uri": "scene.bin"
    }
  ],
  "images": [
    {
      "uri": "textures/material_0_baseColor.jpeg"
    }
  ],
  "materials": [
    {
      "doubleSided": true,
      "name": "material_0",
      "pbrMetallicRoughness": {
        "baseColorTexture": {
          "index": 0
        },
        "metallicFactor": 0.0
      }
    }
  ],
  "meshes": [
    {
      "name": "Object_0",
      "primitives": [
        {
          "attributes": {
            "NORMAL": 1,
            "POSITION": 0,
            "TEXCOORD_0": 2
          },
          "indices": 3,
          "material": 0,
          "mode": 4
        }
      ]
    }
  ],
  "nodes": [
    {
      "children": [
        1
      ],
      "matrix": [
        1.0,
        8.661515210534859e-19,
        -1.6080993295516797e-16,
        0.0,
        1.232595164407831e-32,
        -0.9999855160713196,
        -0.005386103410274012,
        0.0,
        -1.6081226229577292e-16,
        0.005386103410274012,
        -0.9999855160713196,
        0.0,
        -4.982993184743378e-16,
        -5.792038917541504,
        -0.4055199027061475,
        1.0
      ],
      "name": "Sketchfab_model"
    },
    {
      "children": [
        2
      ],
      "name": "927ab07221c1490d8f775c408c9a6a22.obj.cleaner.materialmerger.gles"
    },
    {
      "mesh": 0,
      "name": "Object_2"
    }
  ],
  "samplers": [
    {
      "magFilter": 9729,
      "minFilter": 9987,
      "wrapS": 10497,
      "wrapT": 10497
    }
  ],
  "scene": 0,
  "scenes": [
    {
      "name": "Sketchfab_Scene",
      "nodes": [
        0
      ]
    }
  ],
  "textures": [
    {
      "sampler": 0,
      "source": 0
    }
  ]
}
